<?xml version="1.0" encoding="UTF-8"?>
<svg version="1.1" xmlns="http://www.w3.org/2000/svg" width="626" height="265">
<path d="M0 0 C7.25185898 1.39071389 11.89400803 3.76093219 16.33666992 9.6862793 C18.65816844 13.41702502 20.63926454 17.26233726 22.55371094 21.21533203 C25.13666006 26.29261163 28.3637159 30.92179079 31.54248047 35.63964844 C32.80518823 37.57220129 34.06429226 39.50711346 35.31982422 41.44433594 C39.07598449 47.22140533 42.83981006 52.99344864 46.60498047 58.76464844 C47.85501523 60.68129243 49.10501522 62.59795911 50.35498047 64.51464844 C50.97373047 65.46339844 51.59248047 66.41214844 52.22998047 67.38964844 C59.10498047 77.9313151 65.97998047 88.47298177 72.85498047 99.01464844 C73.47453613 99.96460693 74.0940918 100.91456543 74.73242188 101.89331055 C75.97438328 103.79770534 77.2162463 105.70216431 78.45800781 107.60668945 C81.70516782 112.58666376 84.95435537 117.56529944 88.20654297 122.54199219 C88.88007813 123.57324219 89.55361328 124.60449219 90.24755859 125.66699219 C91.52947349 127.6296481 92.811985 129.59191452 94.09521484 131.55371094 C95.77105429 134.12024517 97.44007832 136.69100867 99.10498047 139.26464844 C99.61254883 140.04469238 100.12011719 140.82473633 100.64306641 141.62841797 C101.33190918 142.70325439 101.33190918 142.70325439 102.03466797 143.79980469 C102.43669434 144.4237915 102.8387207 145.04777832 103.25292969 145.69067383 C104.10498047 147.26464844 104.10498047 147.26464844 104.10498047 149.26464844 C83.91528684 150.96483316 83.91528684 150.96483316 79.10498047 148.26464844 C76.87090473 145.68789643 75.0614035 142.8583266 73.21044922 139.99902344 C72.64988327 139.15627869 72.08931732 138.31353394 71.51176453 137.44525146 C70.314142 135.64460713 69.12137144 133.84072791 67.93304443 132.03393555 C65.54279164 128.41300303 63.10932254 124.82227017 60.67434692 121.23132324 C58.20369124 117.58683743 55.74388466 113.93508004 53.28344727 110.28369141 C51.4090011 107.50206528 49.53343012 104.72120014 47.65771484 101.94042969 C41.18796683 92.34572308 34.73718609 82.73896464 28.32846069 73.10339355 C26.11054105 69.77012438 23.88870441 66.43946618 21.66748047 63.10839844 C20.74298485 61.72169065 19.81850572 60.33497188 18.89404297 58.94824219 C18.43416992 58.25843262 17.97429687 57.56862305 17.50048828 56.85791016 C10.03531901 45.66015625 2.57014974 34.46240234 -4.89501953 23.26464844 C-7.20540716 26.11974489 -9.37564175 28.85435319 -11.14501953 32.07714844 C-11.72251953 33.12902344 -12.30001953 34.18089844 -12.89501953 35.26464844 C-13.55501953 35.26464844 -14.21501953 35.26464844 -14.89501953 35.26464844 C-15.12705078 35.93496094 -15.35908203 36.60527344 -15.59814453 37.29589844 C-17.24457772 41.06484188 -19.38451823 44.33811125 -21.64501953 47.76464844 C-22.1172998 48.48861816 -22.58958008 49.21258789 -23.07617188 49.95849609 C-25.92148812 54.3067559 -28.80478054 58.6289811 -31.69970703 62.94433594 C-32.33424805 63.89115234 -32.96878906 64.83796875 -33.62255859 65.81347656 C-34.87345195 67.6766188 -36.12793086 69.53735946 -37.38623047 71.39550781 C-38.24522949 72.67264648 -38.24522949 72.67264648 -39.12158203 73.97558594 C-39.63285645 74.73145996 -40.14413086 75.48733398 -40.67089844 76.26611328 C-42.04678486 78.34352674 -42.04678486 78.34352674 -42.89501953 81.26464844 C-43.55501953 81.26464844 -44.21501953 81.26464844 -44.89501953 81.26464844 C-45.12705078 81.93496094 -45.35908203 82.60527344 -45.59814453 83.29589844 C-47.24457772 87.06484188 -49.38451823 90.33811125 -51.64501953 93.76464844 C-52.1172998 94.48861816 -52.58958008 95.21258789 -53.07617188 95.95849609 C-55.92148812 100.3067559 -58.80478054 104.6289811 -61.69970703 108.94433594 C-62.33424805 109.89115234 -62.96878906 110.83796875 -63.62255859 111.81347656 C-64.87345195 113.6766188 -66.12793086 115.53735946 -67.38623047 117.39550781 C-67.95889648 118.24693359 -68.5315625 119.09835938 -69.12158203 119.97558594 C-69.63285645 120.73145996 -70.14413086 121.48733398 -70.67089844 122.26611328 C-72.04678486 124.34352674 -72.04678486 124.34352674 -72.89501953 127.26464844 C-73.55501953 127.26464844 -74.21501953 127.26464844 -74.89501953 127.26464844 C-75.22759766 128.23144531 -75.22759766 128.23144531 -75.56689453 129.21777344 C-77.38935174 133.39870468 -79.72004497 137.15939397 -82.14501953 141.01464844 C-82.61037109 141.79453125 -83.07572266 142.57441406 -83.55517578 143.37792969 C-87.10824148 149.00606406 -87.10824148 149.00606406 -90.96142578 150.27246094 C-91.92951172 150.26988281 -92.89759766 150.26730469 -93.89501953 150.26464844 C-94.68263672 150.30847656 -95.47025391 150.35230469 -96.28173828 150.39746094 C-102.53039456 150.37624309 -108.68243293 149.9260645 -114.89501953 149.26464844 C-114.26540647 146.04064124 -113.13398669 143.80392321 -111.32568359 141.07299805 C-110.78711731 140.25371323 -110.24855103 139.43442841 -109.69366455 138.59031677 C-109.10526794 137.70811966 -108.51687134 136.82592255 -107.91064453 135.91699219 C-107.29920593 134.9910878 -106.68776733 134.06518341 -106.05780029 133.11122131 C-104.09217244 130.13798398 -102.11854337 127.17014893 -100.14501953 124.20214844 C-98.86197921 122.26171597 -97.57942219 120.32096384 -96.29736328 118.37988281 C-89.32658346 107.84233399 -82.26407676 97.37246319 -75.11132812 86.95776367 C-70.59134994 80.37262156 -66.1243339 73.7518844 -61.66259766 67.12719727 C-59.21082559 63.48886946 -56.73961036 59.86470326 -54.25634766 56.24780273 C-48.04357976 47.16204384 -42.09547354 38.06250248 -36.69580078 28.46777344 C-19.51953683 -1.54214706 -19.51953683 -1.54214706 0 0 Z " fill="#4D934D" transform="translate(283.89501953125,15.7353515625)"/>
<path d="M0 0 C7.59 0 15.18 0 23 0 C23.00410889 3.24956543 23.00821777 6.49913086 23.01245117 9.84716797 C23.02967655 20.60403412 23.07422513 31.36066351 23.13209057 42.11738396 C23.1663279 48.63689619 23.19146559 55.15617488 23.19555664 61.67578125 C23.19984641 67.97188078 23.22836677 74.26745376 23.27343178 80.56338882 C23.28638487 82.96100926 23.29072227 85.35869277 23.28615379 87.75634384 C23.28123257 91.12443093 23.3074106 94.4909881 23.34057617 97.85888672 C23.32763771 99.33380333 23.32763771 99.33380333 23.31443787 100.83851624 C23.42849797 107.78389761 25.06550338 113.21997588 29 119 C34.88931262 124.68441425 41.00769642 127.26493946 49.25 127.4375 C56.90581844 127.28926661 62.4130644 125.24691011 68.1015625 120.09765625 C74.61313299 113.1171455 75.29865052 106.64518611 75.31884766 97.40478516 C75.32889328 96.35052338 75.3389389 95.2962616 75.34928894 94.21005249 C75.38010125 90.73639454 75.39715089 87.26281361 75.4140625 83.7890625 C75.43277569 81.37624449 75.45234921 78.96343301 75.4727478 76.55062866 C75.5240589 70.20823011 75.56369027 63.86581035 75.60089111 57.52331543 C75.64093703 51.04804236 75.69202674 44.57285747 75.7421875 38.09765625 C75.83893482 25.3984933 75.92232268 12.69929393 76 0 C83.26 0 90.52 0 98 0 C98.09059448 14.24807333 98.16388535 28.49595339 98.20724869 42.7442503 C98.22806746 49.36126651 98.25628086 55.97807437 98.30175781 62.5949707 C98.34541896 68.98813215 98.36918 75.38109397 98.37950897 81.77439308 C98.38686401 84.20588126 98.40122614 86.6373593 98.42292023 89.06876183 C98.57423451 106.74042545 98.42643201 121.18526698 86 135 C83.50254602 137.36204985 80.94209717 139.22929337 78 141 C76.89398438 141.67482422 76.89398438 141.67482422 75.765625 142.36328125 C62.44964618 149.73928913 48.05049246 150.43455138 33.5234375 147.03125 C22.01076444 143.66168715 11.87117644 137.09313939 5.0625 127.0625 C0.590647 118.81166819 -0.43851486 110.75979894 -0.34057617 101.49169922 C-0.34101425 100.38808548 -0.34145233 99.28447174 -0.34190369 98.14741516 C-0.33982902 94.53298683 -0.31656013 90.91903388 -0.29296875 87.3046875 C-0.28736811 84.78549452 -0.28310022 82.26629826 -0.28010559 79.74710083 C-0.26985751 73.81518364 -0.24626127 67.88341663 -0.21605712 61.95157635 C-0.18239426 55.19212567 -0.1659974 48.43266648 -0.15097082 41.67315269 C-0.11970773 27.78199197 -0.06474385 13.89104295 0 0 Z " fill="#121441" transform="translate(397,17)"/>
<path d="M0 0 C71.04572565 0 71.04572565 0 84.15234375 11.96484375 C92.7677742 20.83697231 96.37464065 31.83927165 96.2109375 44.03515625 C95.37567042 55.77529913 89.96175865 66.0494518 81.47265625 74.11328125 C72.19404862 81.19316669 61.31444024 85.3609545 49.66015625 85.1953125 C48.9791687 85.19329834 48.29818115 85.19128418 47.59655762 85.18920898 C45.08513524 85.17885029 42.57380989 85.15092882 40.0625 85.125 C34.431875 85.08375 28.80125 85.0425 23 85 C23 105.13 23 125.26 23 146 C15.41 146 7.82 146 0 146 C0 97.82 0 49.64 0 0 Z M23 18 C23 34.5 23 51 23 68 C27.434375 68.0825 31.86875 68.165 36.4375 68.25 C37.81736084 68.28641602 39.19722168 68.32283203 40.61889648 68.36035156 C49.44096532 68.43943322 55.84386812 67.40047154 62.75 61.75 C69.8036398 53.12888468 71.95558766 46.21488298 71 35 C69.00485419 28.17963742 64.6558292 23.77927473 58.828125 19.875 C52.36995954 16.71813318 45.00172814 17.58503018 38 17.75 C33.05 17.8325 28.1 17.915 23 18 Z " fill="#121441" transform="translate(522,17)"/>
<path d="M0 0 C25.74 0 51.48 0 78 0 C78 5.61 78 11.22 78 17 C59.85 17 41.7 17 23 17 C23 31.52 23 46.04 23 61 C39.5 61 56 61 73 61 C73 66.94 73 72.88 73 79 C56.5 79 40 79 23 79 C23 101.11 23 123.22 23 146 C15.41 146 7.82 146 0 146 C0 97.82 0 49.64 0 0 Z " fill="#121342" transform="translate(19,19)"/>
<path d="M0 0 C7.59 0 15.18 0 23 0 C23 48.18 23 96.36 23 146 C15.41 146 7.82 146 0 146 C0 97.82 0 49.64 0 0 Z " fill="#121341" transform="translate(120,19)"/>
<path d="M0 0 C5.22427966 4.5973661 8.53140419 10.25551582 12.1875 16.125 C13.60449714 18.37127666 15.02317006 20.61636481 16.4453125 22.859375 C16.81259964 23.43944305 17.17988678 24.01951111 17.55830383 24.61715698 C22.50213726 32.40065593 27.65432669 40.0459314 32.7956543 47.69970703 C36.23919506 52.83308638 39.66592937 57.97643428 43.02734375 63.1640625 C43.600896 64.04787598 44.17444824 64.93168945 44.76538086 65.84228516 C46 68 46 68 46 70 C41.99911307 70.24888281 38.00126335 70.42936435 33.99438477 70.54931641 C32.63486228 70.59934038 31.27587087 70.66739674 29.91821289 70.75439453 C18.72314113 71.45331565 18.72314113 71.45331565 14.70654297 68.06567383 C12.85914651 65.46478074 11.41890371 62.85524172 10 60 C9.03688425 58.40875134 8.06321882 56.82383086 7.078125 55.24609375 C6.13197486 53.64525841 5.18933746 52.04234236 4.25 50.4375 C1.19283609 45.24624666 -1.88861341 40.10032529 -5.25390625 35.1015625 C-6.02492676 33.95216187 -6.02492676 33.95216187 -6.81152344 32.77954102 C-7.79030725 31.33381301 -8.78134499 29.89628338 -9.78613281 28.46850586 C-13.05466585 23.63004278 -13.05466585 23.63004278 -12.78808594 20.55761719 C-11.9492485 17.83529347 -10.88178682 15.92177229 -9.27734375 13.57421875 C-8.73916016 12.77822266 -8.20097656 11.98222656 -7.64648438 11.16210938 C-7.08251953 10.34548828 -6.51855469 9.52886719 -5.9375 8.6875 C-5.36966797 7.85154297 -4.80183594 7.01558594 -4.21679688 6.15429688 C-2.81837969 4.09780101 -1.41266246 2.04672458 0 0 Z " fill="#121442" transform="translate(249,95)"/>
<path d="M0 0 C24.3372316 -3.14528294 24.3372316 -3.14528294 31.45605469 1.65673828 C35.59604387 6.19324227 38.11129647 11.60715491 40.63183594 17.15917969 C42.89293729 21.85407179 45.81432725 26.10062742 48.6875 30.4375 C49.67807239 31.97305259 50.66168829 33.51312586 51.63671875 35.05859375 C52.04623779 35.70111084 52.45575684 36.34362793 52.87768555 37.00561523 C54.21018044 39.37349663 55.30797376 41.35639451 56 44 C54.94189453 46.49536133 54.94189453 46.49536133 53.1328125 49.08203125 C52.49472656 50.01337891 51.85664063 50.94472656 51.19921875 51.90429688 C50.17248047 53.34385742 50.17248047 53.34385742 49.125 54.8125 C48.44824219 55.79154297 47.77148438 56.77058594 47.07421875 57.77929688 C45.39879469 60.19804288 43.70727204 62.60367878 42 65 C39.2453012 62.38446105 37.08154379 59.8264772 35.07421875 56.60546875 C34.53240967 55.74373047 33.99060059 54.88199219 33.43237305 53.99414062 C32.85656494 53.06794922 32.28075684 52.14175781 31.6875 51.1875 C30.43869395 49.20107181 29.18865264 47.21541977 27.9375 45.23046875 C27.29167969 44.2048584 26.64585937 43.17924805 25.98046875 42.12255859 C22.76363794 37.05065696 19.47670505 32.02515122 16.1875 27 C14.9400715 25.08986508 13.69267472 23.17970945 12.4453125 21.26953125 C10.78813116 18.73354162 9.13006761 16.19816865 7.46777344 13.66552734 C6.16207147 11.67539211 4.86159956 9.68194838 3.5625 7.6875 C2.86253906 6.61886719 2.16257813 5.55023438 1.44140625 4.44921875 C0 2 0 2 0 0 Z " fill="#121442" transform="translate(172,19)"/>
<path d="M0 0 C2.95733011 0.08065446 3.77095065 0.13645962 6.125 2.0625 C7.32359611 5.01903708 7.23072469 6.41549744 6.0625 9.375 C4 10.6875 4 10.6875 2.0625 11.375 C3.7125 13.355 5.3625 15.335 7.0625 17.375 C7.7225 16.385 8.3825 15.395 9.0625 14.375 C10.0525 14.375 11.0425 14.375 12.0625 14.375 C11.753125 16.045625 11.753125 16.045625 11.4375 17.75 C11.31375 18.94625 11.19 20.1425 11.0625 21.375 C11.7225 22.035 12.3825 22.695 13.0625 23.375 C13.0625 24.365 13.0625 25.355 13.0625 26.375 C12.464375 26.21 11.86625 26.045 11.25 25.875 C8.45251729 25.23557538 6.66218785 25.07515607 4.0625 26.375 C0.0007545 26.78274279 -3.70093207 26.88772329 -7.5 25.3125 C-9.7570184 22.27043172 -9.45251365 20.04447222 -8.9375 16.375 C-6.9375 13.9375 -6.9375 13.9375 -4.9375 12.375 C-5.2675 11.385 -5.5975 10.395 -5.9375 9.375 C-6.125 5.8125 -6.125 5.8125 -5.9375 2.375 C-3.9375 0.375 -3.9375 0.375 0 0 Z M-0.9375 2.375 C-1.5975 3.035 -2.2575 3.695 -2.9375 4.375 C-2.61708603 6.97780568 -2.61708603 6.97780568 -1.9375 9.375 C-0.9475 9.375 0.0425 9.375 1.0625 9.375 C2.76782323 7.43490478 2.76782323 7.43490478 4.0625 5.375 C2.68764468 3.83333358 2.68764468 3.83333358 1.0625 2.375 C0.4025 2.375 -0.2575 2.375 -0.9375 2.375 Z M-4.625 15.5625 C-6.23061998 17.35966409 -6.23061998 17.35966409 -5.6875 20 C-5.16004355 22.3062407 -5.16004355 22.3062407 -3.9375 23.375 C0.71338715 23.68023962 0.71338715 23.68023962 5.0625 22.375 C3.62172954 19.01320226 1.81499979 16.78343732 -0.9375 14.375 C-3.00880565 14.18316886 -3.00880565 14.18316886 -4.625 15.5625 Z " fill="#131742" transform="translate(238.9375,211.625)"/>
<path d="M0 0 C4.03297602 2.23115776 6.53820819 4.61462458 8 9 C8.44593599 15.91200784 7.589378 19.00603168 3 24.3125 C-1.57259622 26.88458537 -5.87398948 26.75161445 -11 26 C-15.16884941 23.95214415 -17.28187228 22.26835318 -19 18 C-19.7121481 12.98184011 -19.52912753 9.05825505 -17.25 4.5 C-12.4928459 -0.78572678 -6.80684641 -1.12327367 0 0 Z M-15 8 C-16.41000664 10.82001327 -16.24548451 12.87007255 -16 16 C-14.33237678 19.49406769 -13.25993978 20.82670681 -10 23 C-5.37493387 23.53074529 -2.35877726 23.72679282 1.4375 20.875 C4.28902743 17.67572532 5 16.24540492 5 12 C4.22047316 8.72598726 3.15616648 7.16994588 0.875 4.6875 C-5.5875903 0.89424047 -10.38240889 2.12306586 -15 8 Z " fill="#131742" transform="translate(571,212)"/>
<path d="M0 0 C4.03297602 2.23115776 6.53820819 4.61462458 8 9 C8.44593599 15.91200784 7.589378 19.00603168 3 24.3125 C-1.57259622 26.88458537 -5.87398948 26.75161445 -11 26 C-15.16884941 23.95214415 -17.28187228 22.26835318 -19 18 C-19.7121481 12.98184011 -19.52912753 9.05825505 -17.25 4.5 C-12.4928459 -0.78572678 -6.80684641 -1.12327367 0 0 Z M-15 8 C-16.41000664 10.82001327 -16.24548451 12.87007255 -16 16 C-14.33237678 19.49406769 -13.25993978 20.82670681 -10 23 C-5.37493387 23.53074529 -2.35877726 23.72679282 1.4375 20.875 C4.28902743 17.67572532 5 16.24540492 5 12 C4.22047316 8.72598726 3.15616648 7.16994588 0.875 4.6875 C-5.5875903 0.89424047 -10.38240889 2.12306586 -15 8 Z " fill="#131742" transform="translate(320,212)"/>
<path d="M0 0 C4.03297602 2.23115776 6.53820819 4.61462458 8 9 C8.44593599 15.91200784 7.589378 19.00603168 3 24.3125 C-1.57259622 26.88458537 -5.87398948 26.75161445 -11 26 C-15.16884941 23.95214415 -17.28187228 22.26835318 -19 18 C-19.7121481 12.98184011 -19.52912753 9.05825505 -17.25 4.5 C-12.4928459 -0.78572678 -6.80684641 -1.12327367 0 0 Z M-15 8 C-16.41000664 10.82001327 -16.24548451 12.87007255 -16 16 C-14.33237678 19.49406769 -13.25993978 20.82670681 -10 23 C-5.37493387 23.53074529 -2.35877726 23.72679282 1.4375 20.875 C4.28902743 17.67572532 5 16.24540492 5 12 C4.22047316 8.72598726 3.15616648 7.16994588 0.875 4.6875 C-5.5875903 0.89424047 -10.38240889 2.12306586 -15 8 Z " fill="#131742" transform="translate(95,212)"/>
<path d="M0 0 C4.03297602 2.23115776 6.53820819 4.61462458 8 9 C8.44593599 15.91200784 7.589378 19.00603168 3 24.3125 C-1.57259622 26.88458537 -5.87398948 26.75161445 -11 26 C-15.16884941 23.95214415 -17.28187228 22.26835318 -19 18 C-19.7121481 12.98184011 -19.52912753 9.05825505 -17.25 4.5 C-12.4928459 -0.78572678 -6.80684641 -1.12327367 0 0 Z M-15 8 C-16.41000664 10.82001327 -16.24548451 12.87007255 -16 16 C-14.33237678 19.49406769 -13.25993978 20.82670681 -10 23 C-5.37493387 23.53074529 -2.35877726 23.72679282 1.4375 20.875 C4.28902743 17.67572532 5 16.24540492 5 12 C4.22047316 8.72598726 3.15616648 7.16994588 0.875 4.6875 C-5.5875903 0.89424047 -10.38240889 2.12306586 -15 8 Z " fill="#131742" transform="translate(60,212)"/>
<path d="M0 0 C1.32 0 2.64 0 4 0 C5.85506636 2.03046527 7.41583129 3.96246303 9 6.1875 C9.85381637 7.34791407 10.70797853 8.50807381 11.5625 9.66796875 C11.93503906 10.18641357 12.30757812 10.7048584 12.69140625 11.23901367 C14.4004475 13.53888579 16.2100297 15.76253713 18 18 C18.33 12.06 18.66 6.12 19 0 C19.99 0 20.98 0 22 0 C22 8.58 22 17.16 22 26 C20.68 26 19.36 26 18 26 C16.14493364 23.96953473 14.58416871 22.03753697 13 19.8125 C12.14618363 18.65208593 11.29202147 17.49192619 10.4375 16.33203125 C10.06496094 15.81358643 9.69242188 15.2951416 9.30859375 14.76098633 C7.5995525 12.46111421 5.7899703 10.23746287 4 8 C3.67 13.94 3.34 19.88 3 26 C2.01 26 1.02 26 0 26 C0 17.42 0 8.84 0 0 Z " fill="#121541" transform="translate(588,212)"/>
<path d="M0 0 C1.32 0 2.64 0 4 0 C5.85506636 2.03046527 7.41583129 3.96246303 9 6.1875 C9.85381637 7.34791407 10.70797853 8.50807381 11.5625 9.66796875 C11.93503906 10.18641357 12.30757813 10.7048584 12.69140625 11.23901367 C14.4004475 13.53888579 16.2100297 15.76253713 18 18 C18.33 12.06 18.66 6.12 19 0 C19.99 0 20.98 0 22 0 C22 8.58 22 17.16 22 26 C20.68 26 19.36 26 18 26 C16.14493364 23.96953473 14.58416871 22.03753697 13 19.8125 C12.14618363 18.65208593 11.29202147 17.49192619 10.4375 16.33203125 C10.06496094 15.81358643 9.69242187 15.2951416 9.30859375 14.76098633 C7.5995525 12.46111421 5.7899703 10.23746287 4 8 C3.67 13.94 3.34 19.88 3 26 C2.01 26 1.02 26 0 26 C0 17.42 0 8.84 0 0 Z " fill="#121541" transform="translate(338,212)"/>
<path d="M0 0 C1.32 0 2.64 0 4 0 C5.85506636 2.03046527 7.41583129 3.96246303 9 6.1875 C9.85381637 7.34791407 10.70797853 8.50807381 11.5625 9.66796875 C11.93503906 10.18641357 12.30757812 10.7048584 12.69140625 11.23901367 C14.4004475 13.53888579 16.2100297 15.76253713 18 18 C18.33 12.06 18.66 6.12 19 0 C19.99 0 20.98 0 22 0 C22 8.58 22 17.16 22 26 C20.68 26 19.36 26 18 26 C16.14493364 23.96953473 14.58416871 22.03753697 13 19.8125 C12.14618363 18.65208593 11.29202147 17.49192619 10.4375 16.33203125 C10.06496094 15.81358643 9.69242188 15.2951416 9.30859375 14.76098633 C7.5995525 12.46111421 5.7899703 10.23746287 4 8 C3.67 13.94 3.34 19.88 3 26 C2.01 26 1.02 26 0 26 C0 17.42 0 8.84 0 0 Z " fill="#121541" transform="translate(154,212)"/>
<path d="M0 0 C2.371875 -0.103125 4.74375 -0.20625 7.1875 -0.3125 C7.92508545 -0.35802002 8.6626709 -0.40354004 9.42260742 -0.45043945 C13.24708125 -0.53049259 14.8844605 -0.08741877 17.953125 2.234375 C20.58830629 5.79488713 20.66201276 7.63644665 20.44140625 11.90625 C19.81559356 14.87470667 18.42233615 16.25894589 16 18 C17.65 20.64 19.3 23.28 21 26 C18.8125 26.4375 18.8125 26.4375 16 26 C14.8359375 24.4765625 14.8359375 24.4765625 13.6875 22.5625 C12.21714409 20.22501113 11.56204924 19.18455348 8.90625 18.3125 C6.44877177 17.99998315 6.44877177 17.99998315 3 18 C3 20.64 3 23.28 3 26 C2.01 26 1.02 26 0 26 C0 17.42 0 8.84 0 0 Z M3 3 C3 6.96 3 10.92 3 15 C4.753125 15.0825 6.50625 15.165 8.3125 15.25 C9.79169922 15.31960937 9.79169922 15.31960937 11.30078125 15.390625 C14.10452219 15.25546808 14.10452219 15.25546808 15.86328125 13.1796875 C17.4731682 10.09268779 16.99593487 8.27235742 16 5 C12.68629 2.79086 11.6553979 2.77518447 7.8125 2.875 C6.224375 2.91625 4.63625 2.9575 3 3 Z " fill="#121541" transform="translate(422,212)"/>
<path d="M0 0 C2.371875 -0.103125 4.74375 -0.20625 7.1875 -0.3125 C7.92508545 -0.35802002 8.6626709 -0.40354004 9.42260742 -0.45043945 C13.24708125 -0.53049259 14.8844605 -0.08741877 17.953125 2.234375 C20.58830629 5.79488713 20.66201276 7.63644665 20.44140625 11.90625 C19.81559356 14.87470667 18.42233615 16.25894589 16 18 C17.65 20.64 19.3 23.28 21 26 C18.8125 26.4375 18.8125 26.4375 16 26 C14.8359375 24.4765625 14.8359375 24.4765625 13.6875 22.5625 C12.21714409 20.22501113 11.56204924 19.18455348 8.90625 18.3125 C6.44877177 17.99998315 6.44877177 17.99998315 3 18 C3 20.64 3 23.28 3 26 C2.01 26 1.02 26 0 26 C0 17.42 0 8.84 0 0 Z M3 3 C3 6.96 3 10.92 3 15 C4.753125 15.0825 6.50625 15.165 8.3125 15.25 C9.79169922 15.31960937 9.79169922 15.31960937 11.30078125 15.390625 C14.10452219 15.25546808 14.10452219 15.25546808 15.86328125 13.1796875 C17.4731682 10.09268779 16.99593487 8.27235742 16 5 C12.68629 2.79086 11.6553979 2.77518447 7.8125 2.875 C6.224375 2.91625 4.63625 2.9575 3 3 Z " fill="#121541" transform="translate(13,212)"/>
<path d="M0 0 C2.33984375 1.5234375 2.33984375 1.5234375 4 3 C3.67 3.99 3.34 4.98 3 6 C1.9790625 5.505 1.9790625 5.505 0.9375 5 C-2.64496824 3.78043634 -5.23445682 3.59654895 -9 4 C-12.00979883 5.34115399 -12.00979883 5.34115399 -14 8 C-15.12591591 11.59115663 -15.36070822 14.75391704 -14.3125 18.375 C-12.68563768 20.3892105 -11.40152293 21.0310377 -9 22 C-6.40845081 22.24029959 -6.40845081 22.24029959 -3.75 22.125 C-2.41195312 22.09792969 -2.41195312 22.09792969 -1.046875 22.0703125 C-0.37140625 22.04710937 0.3040625 22.02390625 1 22 C1 19.03 1 16.06 1 13 C1.99 13 2.98 13 4 13 C4 16.63 4 20.26 4 24 C-1.15611765 26.57805883 -5.32141132 26.67387015 -11 26 C-15.16406148 23.95449611 -17.29193919 22.27015203 -19 18 C-19.56811094 13.46249055 -19.53359148 9.31993681 -17.8125 5.0625 C-12.8856608 -0.54390323 -7.1860778 -1.0923695 0 0 Z " fill="#131641" transform="translate(204,212)"/>
<path d="M0 0 C0.99 0.66 1.98 1.32 3 2 C2.67 2.99 2.34 3.98 2 5 C1.01 4.67 0.02 4.34 -1 4 C-2.72795352 3.93197033 -4.45835365 3.91504355 -6.1875 3.9375 C-7.08855469 3.94652344 -7.98960937 3.95554688 -8.91796875 3.96484375 C-9.94857422 3.98224609 -9.94857422 3.98224609 -11 4 C-10.92378512 6.44954062 -10.92378512 6.44954062 -10 9 C-7.57731098 10.37154263 -7.57731098 10.37154263 -4.625 11.125 C1.77246834 13.0324246 1.77246834 13.0324246 4 16 C4.51410062 19.45181843 4.38115483 21.31029126 2.6875 24.375 C-1.64051072 26.99193671 -6.07644579 26.63365269 -11 26 C-14.1875 24.5 -14.1875 24.5 -16 23 C-15.01 21.515 -15.01 21.515 -14 20 C-13.44828125 20.32742187 -12.8965625 20.65484375 -12.328125 20.9921875 C-9.61219077 22.16787715 -7.69448241 22.20248638 -4.75 22.125 C-3.41195313 22.09792969 -3.41195313 22.09792969 -2.046875 22.0703125 C-1.37140625 22.04710937 -0.6959375 22.02390625 0 22 C0.01249553 19.56705099 0.01249553 19.56705099 -1 17 C-3.94642 15.36724182 -3.94642 15.36724182 -7.5 14.3125 C-13.91389432 12.17221135 -13.91389432 12.17221135 -15 10 C-15.36849051 6.60988731 -15.35014495 4.63359562 -13.6875 1.625 C-9.43258055 -0.947742 -4.85256126 -0.63713018 0 0 Z " fill="#121541" transform="translate(384,212)"/>
<path d="M0 0 C2.33984375 1.5234375 2.33984375 1.5234375 4 3 C3.67 3.99 3.34 4.98 3 6 C1.9790625 5.505 1.9790625 5.505 0.9375 5 C-2.64496824 3.78043634 -5.23445682 3.59654895 -9 4 C-12.00979883 5.34115399 -12.00979883 5.34115399 -14 8 C-15.12591591 11.59115663 -15.36070822 14.75391704 -14.3125 18.375 C-12.60466565 20.48946158 -11.61777835 21.17333315 -9 22 C-4.60075489 22.43449334 -0.79982112 22.53321408 3 20 C3 21.32 3 22.64 3 24 C-1.46692447 26.97794964 -5.76218611 26.61357248 -11 26 C-15.16406148 23.95449611 -17.29193919 22.27015203 -19 18 C-19.56811094 13.46249055 -19.53359148 9.31993681 -17.8125 5.0625 C-12.8856608 -0.54390323 -7.1860778 -1.0923695 0 0 Z " fill="#131742" transform="translate(501,212)"/>
<path d="M0 0 C2.33984375 1.5234375 2.33984375 1.5234375 4 3 C3.67 3.99 3.34 4.98 3 6 C1.9790625 5.505 1.9790625 5.505 0.9375 5 C-2.64496824 3.78043634 -5.23445682 3.59654895 -9 4 C-12.00979883 5.34115399 -12.00979883 5.34115399 -14 8 C-15.12591591 11.59115663 -15.36070822 14.75391704 -14.3125 18.375 C-12.60466565 20.48946158 -11.61777835 21.17333315 -9 22 C-4.60075489 22.43449334 -0.79982112 22.53321408 3 20 C3 21.32 3 22.64 3 24 C-1.46692447 26.97794964 -5.76218611 26.61357248 -11 26 C-15.16406148 23.95449611 -17.29193919 22.27015203 -19 18 C-19.56811094 13.46249055 -19.53359148 9.31993681 -17.8125 5.0625 C-12.8856608 -0.54390323 -7.1860778 -1.0923695 0 0 Z " fill="#131742" transform="translate(291,212)"/>
<path d="M0 0 C0.99 0 1.98 0 3 0 C3.03738281 1.25296875 3.07476562 2.5059375 3.11328125 3.796875 C3.17894885 5.44794621 3.24539593 7.09898655 3.3125 8.75 C3.33505859 9.575 3.35761719 10.4 3.38085938 11.25 C3.53798795 14.79253507 3.67248866 17.37009619 5.32421875 20.546875 C7.07922917 22.33375972 7.07922917 22.33375972 10.5 22.5 C13.92077083 22.33375972 13.92077083 22.33375972 15.67578125 20.546875 C17.66536963 16.72029203 17.5711177 13.00626706 17.6875 8.75 C17.72166016 7.90953125 17.75582031 7.0690625 17.79101562 6.203125 C17.87323568 4.13587796 17.93830157 2.06796126 18 0 C18.99 0 19.98 0 21 0 C21.05819424 3.24992446 21.09366116 6.49971435 21.125 9.75 C21.14175781 10.67039063 21.15851563 11.59078125 21.17578125 12.5390625 C21.18222656 13.42851562 21.18867188 14.31796875 21.1953125 15.234375 C21.20578613 16.05131836 21.21625977 16.86826172 21.22705078 17.70996094 C20.97145196 20.28793619 20.39838004 21.82603319 19 24 C14.56313179 26.95791214 10.20591533 26.65561752 5 26 C2.34436198 24.1031157 1.42757473 22.85514945 0 20 C-0.08372659 18.47851674 -0.10730027 16.95344222 -0.09765625 15.4296875 C-0.09443359 14.53378906 -0.09121094 13.63789063 -0.08789062 12.71484375 C-0.07951172 11.77769531 -0.07113281 10.84054688 -0.0625 9.875 C-0.05798828 8.93011719 -0.05347656 7.98523438 -0.04882812 7.01171875 C-0.03702357 4.67441613 -0.02055759 2.33723939 0 0 Z " fill="#131641" transform="translate(452,212)"/>
<path d="M0 0 C5.94 0 11.88 0 18 0 C18 0.99 18 1.98 18 3 C13.05 3 8.1 3 3 3 C3 5.97 3 8.94 3 12 C7.62 12 12.24 12 17 12 C17 12.99 17 13.98 17 15 C12.38 15 7.76 15 3 15 C3 18.63 3 22.26 3 26 C2.01 26 1.02 26 0 26 C0 17.42 0 8.84 0 0 Z " fill="#121442" transform="translate(112,212)"/>
<path d="M0 0 C6.93 0 13.86 0 21 0 C21 0.99 21 1.98 21 3 C18.03 3 15.06 3 12 3 C12 10.59 12 18.18 12 26 C11.01 26 10.02 26 9 26 C9 18.41 9 10.82 9 3 C6.03 3 3.06 3 0 3 C0 2.01 0 1.02 0 0 Z " fill="#121341" transform="translate(510,212)"/>
<path d="M0 0 C6.93 0 13.86 0 21 0 C21 0.99 21 1.98 21 3 C18.03 3 15.06 3 12 3 C12 10.59 12 18.18 12 26 C11.01 26 10.02 26 9 26 C9 18.41 9 10.82 9 3 C6.03 3 3.06 3 0 3 C0 2.01 0 1.02 0 0 Z " fill="#121341" transform="translate(393,212)"/>
<path d="M0 0 C0.99 0 1.98 0 3 0 C3 8.58 3 17.16 3 26 C2.01 26 1.02 26 0 26 C0 17.42 0 8.84 0 0 Z " fill="#121441" transform="translate(539,212)"/>
<path d="M0 0 C0.99 0 1.98 0 3 0 C3 8.58 3 17.16 3 26 C2.01 26 1.02 26 0 26 C0 17.42 0 8.84 0 0 Z " fill="#121441" transform="translate(139,212)"/>
</svg>
